<svg id="Layer_1" data-name="Layer 1" xmlns="http://www.w3.org/2000/svg" viewBox="0 0 84.56 85.67"><defs><style>.cls-1{fill:none;stroke:#f4f1eb;stroke-miterlimit:10;stroke-width:2px;}</style></defs><title>phone-white-outline</title><path class="cls-1" d="M259.19,369.06l12.07-9.8a3.06,3.06,0,0,1,4.46.64l11.14,16.18a3.06,3.06,0,0,1,.27,3l-4.59,10.17a3.06,3.06,0,0,0,.62,3.42l24,24.17a3.06,3.06,0,0,0,3.69.5l8-4.56a3.06,3.06,0,0,1,3.22.11l17.18,11.45a3.06,3.06,0,0,1,.72,4.43l-9.59,12.29a3.06,3.06,0,0,1-3.51,1c-11.06-4.29-61.62-26.16-68.77-70.14A3,3,0,0,1,259.19,369.06Z" transform="translate(-257.05 -357.57)"/></svg>